
<svg
      width="50"
      height="50"
      viewBox="0 0 500 500"
      fill="none"
      xmlns="http://www.w3.org/2000/svg"
      preserveAspectRatio="xMidYMid meet"
    >
      <g clip-path="url(#clip0_7_2)">
      
        <path
          d="M43.25 306V156L106.375 107.25C125.542 107.25 140.958 113.292 152.625 125.375C157.208 130.125 160.875 135.417 163.625 141.25L207.625 107.25C226.625 107.25 242.042 113.292 253.875 125.375C265.125 136.875 270.75 151.667 270.75 169.75V294.5L247 306H245.75V169.75C245.75 158.583 242.75 149.542 236.75 142.625C229.333 134.042 219.625 129.75 207.625 129.75C195.375 129.75 185.667 134.042 178.5 142.625C172.5 149.792 169.5 158.833 169.5 169.75V294.5V294.75L145.75 306H144.5V169.75C144.5 158.583 141.5 149.542 135.5 142.625C128.083 134.042 118.375 129.75 106.375 129.75C94.125 129.75 84.4167 134.042 77.25 142.625C71.25 149.792 68.25 158.833 68.25 169.75V294.75L44.5 306H43.25Z"
          fill="#47FFC2"
        />
        <path
          d="M302.125 234.75V233.5L309.25 218.5H320.875V155L384 106.25C403 106.25 418.417 112.292 430.25 124.375C441.5 135.875 447.125 150.667 447.125 168.75V293.5L423.375 305H422.125V168.75C422.125 157.583 419.125 148.542 413.125 141.625C405.708 133.042 396 128.75 384 128.75C371.75 128.75 362.042 133.042 354.875 141.625C348.875 148.792 345.875 157.833 345.875 168.75V218.5H404.625V219.75L397.5 234.75H345.875V293.75L322.125 305H320.875V234.75H302.125Z"
          fill="#47FFC2"
        />
        <circle cx="63.5" cy="360.5" r="21.5" fill="#47FFC2" />
        <path
          d="M104 360.5C104 357.462 106.462 355 109.5 355H431.5C434.538 355 437 357.462 437 360.5V360.5C437 363.538 434.538 366 431.5 366H109.5C106.462 366 104 363.538 104 360.5V360.5Z"
          fill="#47FFC2"
        />
      </g>
      <defs>
        <clipPath id="clip0_7_2">
          <rect width="500" height="500" fill="#47FFC2" />
        </clipPath>
      </defs>
    </svg>
    
